<svg xmlns="http://www.w3.org/2000/svg" width="1100" height="560" viewBox="0 0 1100 560">
<defs><linearGradient id="bg" x1="0" x2="1"><stop offset="0%" stop-color="#FFF7F7"/><stop offset="100%" stop-color="#F0FFF4"/></linearGradient></defs>
<rect width="1100" height="560" rx="28" fill="url(#bg)"/>
<text x="550" y="46" text-anchor="middle" font-family="Inter,DejaVu Sans,Arial,sans-serif" font-size="28" font-weight="700" fill="#172033">Before / after security scan results</text>
<text x="550" y="76" text-anchor="middle" font-family="Inter,DejaVu Sans,Arial,sans-serif" font-size="15" font-weight="400" fill="#526078">Red = vulnerable baseline. Green = fixed version. Residual items are documented as non-blocking.</text>
<text x="145" y="120" text-anchor="end" font-family="Inter,DejaVu Sans,Arial,sans-serif" font-size="14" font-weight="700" fill="#172033">Semgrep</text><rect x="180" y="100" width="300.0" height="18" rx="9" fill="#DC2626"/><text x="502.0" y="115" text-anchor="start" font-family="Inter,DejaVu Sans,Arial,sans-serif" font-size="13" font-weight="700" fill="#DC2626">10</text><rect x="180" y="124" width="0.0" height="18" rx="9" fill="#16A34A"/><text x="202.0" y="139" text-anchor="start" font-family="Inter,DejaVu Sans,Arial,sans-serif" font-size="13" font-weight="700" fill="#16A34A">0</text><text x="145" y="175" text-anchor="end" font-family="Inter,DejaVu Sans,Arial,sans-serif" font-size="14" font-weight="700" fill="#172033">Bandit</text><rect x="180" y="155" width="210.0" height="18" rx="9" fill="#DC2626"/><text x="412.0" y="170" text-anchor="start" font-family="Inter,DejaVu Sans,Arial,sans-serif" font-size="13" font-weight="700" fill="#DC2626">7</text><rect x="180" y="179" width="0.0" height="18" rx="9" fill="#16A34A"/><text x="202.0" y="194" text-anchor="start" font-family="Inter,DejaVu Sans,Arial,sans-serif" font-size="13" font-weight="700" fill="#16A34A">0</text><text x="145" y="230" text-anchor="end" font-family="Inter,DejaVu Sans,Arial,sans-serif" font-size="14" font-weight="700" fill="#172033">pip-audit</text><rect x="180" y="210" width="720.0" height="18" rx="9" fill="#DC2626"/><text x="922.0" y="225" text-anchor="start" font-family="Inter,DejaVu Sans,Arial,sans-serif" font-size="13" font-weight="700" fill="#DC2626">24</text><rect x="180" y="234" width="120.0" height="18" rx="9" fill="#16A34A"/><text x="322.0" y="249" text-anchor="start" font-family="Inter,DejaVu Sans,Arial,sans-serif" font-size="13" font-weight="700" fill="#16A34A">4</text><text x="145" y="285" text-anchor="end" font-family="Inter,DejaVu Sans,Arial,sans-serif" font-size="14" font-weight="700" fill="#172033">Gitleaks</text><rect x="180" y="265" width="60.0" height="18" rx="9" fill="#DC2626"/><text x="262.0" y="280" text-anchor="start" font-family="Inter,DejaVu Sans,Arial,sans-serif" font-size="13" font-weight="700" fill="#DC2626">2</text><rect x="180" y="289" width="0.0" height="18" rx="9" fill="#16A34A"/><text x="202.0" y="304" text-anchor="start" font-family="Inter,DejaVu Sans,Arial,sans-serif" font-size="13" font-weight="700" fill="#16A34A">0</text><text x="145" y="340" text-anchor="end" font-family="Inter,DejaVu Sans,Arial,sans-serif" font-size="14" font-weight="700" fill="#172033">Checkov</text><rect x="180" y="320" width="120.0" height="18" rx="9" fill="#DC2626"/><text x="322.0" y="335" text-anchor="start" font-family="Inter,DejaVu Sans,Arial,sans-serif" font-size="13" font-weight="700" fill="#DC2626">4</text><rect x="180" y="344" width="30.0" height="18" rx="9" fill="#16A34A"/><text x="232.0" y="359" text-anchor="start" font-family="Inter,DejaVu Sans,Arial,sans-serif" font-size="13" font-weight="700" fill="#16A34A">1</text><text x="145" y="395" text-anchor="end" font-family="Inter,DejaVu Sans,Arial,sans-serif" font-size="14" font-weight="700" fill="#172033">Trivy fs</text><rect x="180" y="375" width="510.0" height="18" rx="9" fill="#DC2626"/><text x="712.0" y="390" text-anchor="start" font-family="Inter,DejaVu Sans,Arial,sans-serif" font-size="13" font-weight="700" fill="#DC2626">17</text><rect x="180" y="399" width="120.0" height="18" rx="9" fill="#16A34A"/><text x="322.0" y="414" text-anchor="start" font-family="Inter,DejaVu Sans,Arial,sans-serif" font-size="13" font-weight="700" fill="#16A34A">4</text><text x="145" y="450" text-anchor="end" font-family="Inter,DejaVu Sans,Arial,sans-serif" font-size="14" font-weight="700" fill="#172033">Grype</text><rect x="180" y="430" width="510.0" height="18" rx="9" fill="#DC2626"/><text x="712.0" y="445" text-anchor="start" font-family="Inter,DejaVu Sans,Arial,sans-serif" font-size="13" font-weight="700" fill="#DC2626">17</text><rect x="180" y="454" width="120.0" height="18" rx="9" fill="#16A34A"/><text x="322.0" y="469" text-anchor="start" font-family="Inter,DejaVu Sans,Arial,sans-serif" font-size="13" font-weight="700" fill="#16A34A">4</text>
<rect x="180" y="500" width="18" height="18" rx="9" fill="#DC2626"/><text x="215" y="514" text-anchor="start" font-family="Inter,DejaVu Sans,Arial,sans-serif" font-size="14" font-weight="700" fill="#526078">vulnerable baseline</text>
<rect x="390" y="500" width="18" height="18" rx="9" fill="#16A34A"/><text x="425" y="514" text-anchor="start" font-family="Inter,DejaVu Sans,Arial,sans-serif" font-size="14" font-weight="700" fill="#526078">fixed version</text>
</svg>